<mxfile host="Electron" modified="2023-09-22T22:55:48.824Z" agent="Mozilla/5.0 (Macintosh; Intel Mac OS X 10_15_7) AppleWebKit/537.36 (KHTML, like Gecko) draw.io/21.7.5 Chrome/114.0.5735.289 Electron/25.8.1 Safari/537.36" etag="v-rpBIYzWm71RBwIhlH-" version="21.7.5" type="device">
  <diagram id="C5RBs43oDa-KdzZeNtuy" name="Page-1">
    <mxGraphModel dx="527" dy="480" grid="0" gridSize="10" guides="1" tooltips="1" connect="1" arrows="1" fold="1" page="1" pageScale="1" pageWidth="827" pageHeight="1169" math="0" shadow="0">
      <root>
        <mxCell id="WIyWlLk6GJQsqaUBKTNV-0" />
        <mxCell id="WIyWlLk6GJQsqaUBKTNV-1" parent="WIyWlLk6GJQsqaUBKTNV-0" />
        <mxCell id="JjZ89tWBW4MPETkLKvt6-0" value="&lt;h1&gt;Weather Forecasting&lt;/h1&gt;&lt;p&gt;Logical ORM scheme of DataBase consists Real data from the source server, Filtered data preprocessed by EMA (Exponential Moving Average) and Forecasted data.&lt;/p&gt;" style="text;html=1;strokeColor=none;fillColor=none;spacing=5;spacingTop=-20;whiteSpace=wrap;overflow=hidden;rounded=0;" parent="WIyWlLk6GJQsqaUBKTNV-1" vertex="1">
          <mxGeometry x="40" y="80" width="440" height="120" as="geometry" />
        </mxCell>
        <mxCell id="uU6CAv-wIGqmtH4Zv3Vl-0" value="sources" style="shape=table;startSize=30;container=1;collapsible=1;childLayout=tableLayout;fixedRows=1;rowLines=0;fontStyle=1;align=center;resizeLast=1;html=1;strokeColor=#666666;" parent="WIyWlLk6GJQsqaUBKTNV-1" vertex="1">
          <mxGeometry x="40" y="200" width="190" height="180" as="geometry" />
        </mxCell>
        <mxCell id="uU6CAv-wIGqmtH4Zv3Vl-1" value="" style="shape=tableRow;horizontal=0;startSize=0;swimlaneHead=0;swimlaneBody=0;fillColor=none;collapsible=0;dropTarget=0;points=[[0,0.5],[1,0.5]];portConstraint=eastwest;top=0;left=0;right=0;bottom=1;strokeColor=#666666;" parent="uU6CAv-wIGqmtH4Zv3Vl-0" vertex="1">
          <mxGeometry y="30" width="190" height="30" as="geometry" />
        </mxCell>
        <mxCell id="uU6CAv-wIGqmtH4Zv3Vl-2" value="PK" style="shape=partialRectangle;connectable=0;fillColor=none;top=0;left=0;bottom=0;right=0;fontStyle=1;overflow=hidden;whiteSpace=wrap;html=1;strokeColor=#666666;" parent="uU6CAv-wIGqmtH4Zv3Vl-1" vertex="1">
          <mxGeometry width="30" height="30" as="geometry">
            <mxRectangle width="30" height="30" as="alternateBounds" />
          </mxGeometry>
        </mxCell>
        <mxCell id="uU6CAv-wIGqmtH4Zv3Vl-3" value="id&lt;span style=&quot;white-space: pre;&quot;&gt; &lt;/span&gt;&lt;span style=&quot;white-space: pre;&quot;&gt; &lt;/span&gt;&lt;span style=&quot;white-space: pre;&quot;&gt; &lt;/span&gt;&lt;span style=&quot;font-weight: normal;&quot;&gt;SERIAL&lt;/span&gt;" style="shape=partialRectangle;connectable=0;fillColor=none;top=0;left=0;bottom=0;right=0;align=left;spacingLeft=6;fontStyle=5;overflow=hidden;whiteSpace=wrap;html=1;strokeColor=#666666;" parent="uU6CAv-wIGqmtH4Zv3Vl-1" vertex="1">
          <mxGeometry x="30" width="160" height="30" as="geometry">
            <mxRectangle width="160" height="30" as="alternateBounds" />
          </mxGeometry>
        </mxCell>
        <mxCell id="uU6CAv-wIGqmtH4Zv3Vl-4" value="" style="shape=tableRow;horizontal=0;startSize=0;swimlaneHead=0;swimlaneBody=0;fillColor=none;collapsible=0;dropTarget=0;points=[[0,0.5],[1,0.5]];portConstraint=eastwest;top=0;left=0;right=0;bottom=0;strokeColor=#666666;" parent="uU6CAv-wIGqmtH4Zv3Vl-0" vertex="1">
          <mxGeometry y="60" width="190" height="30" as="geometry" />
        </mxCell>
        <mxCell id="uU6CAv-wIGqmtH4Zv3Vl-5" value="" style="shape=partialRectangle;connectable=0;fillColor=none;top=0;left=0;bottom=0;right=0;editable=1;overflow=hidden;whiteSpace=wrap;html=1;strokeColor=#666666;" parent="uU6CAv-wIGqmtH4Zv3Vl-4" vertex="1">
          <mxGeometry width="30" height="30" as="geometry">
            <mxRectangle width="30" height="30" as="alternateBounds" />
          </mxGeometry>
        </mxCell>
        <mxCell id="uU6CAv-wIGqmtH4Zv3Vl-6" value="date&lt;span style=&quot;white-space: pre;&quot;&gt; &lt;/span&gt;&lt;span style=&quot;white-space: pre;&quot;&gt; &amp;nbsp;&lt;/span&gt;&amp;nbsp;&lt;span style=&quot;white-space: pre;&quot;&gt; &lt;/span&gt;SMALLINT" style="shape=partialRectangle;connectable=0;fillColor=none;top=0;left=0;bottom=0;right=0;align=left;spacingLeft=6;overflow=hidden;whiteSpace=wrap;html=1;strokeColor=#666666;" parent="uU6CAv-wIGqmtH4Zv3Vl-4" vertex="1">
          <mxGeometry x="30" width="160" height="30" as="geometry">
            <mxRectangle width="160" height="30" as="alternateBounds" />
          </mxGeometry>
        </mxCell>
        <mxCell id="uU6CAv-wIGqmtH4Zv3Vl-16" value="" style="shape=tableRow;horizontal=0;startSize=0;swimlaneHead=0;swimlaneBody=0;fillColor=none;collapsible=0;dropTarget=0;points=[[0,0.5],[1,0.5]];portConstraint=eastwest;top=0;left=0;right=0;bottom=0;strokeColor=#666666;" parent="uU6CAv-wIGqmtH4Zv3Vl-0" vertex="1">
          <mxGeometry y="90" width="190" height="30" as="geometry" />
        </mxCell>
        <mxCell id="uU6CAv-wIGqmtH4Zv3Vl-17" value="" style="shape=partialRectangle;connectable=0;fillColor=none;top=0;left=0;bottom=0;right=0;editable=1;overflow=hidden;whiteSpace=wrap;html=1;strokeColor=#666666;" parent="uU6CAv-wIGqmtH4Zv3Vl-16" vertex="1">
          <mxGeometry width="30" height="30" as="geometry">
            <mxRectangle width="30" height="30" as="alternateBounds" />
          </mxGeometry>
        </mxCell>
        <mxCell id="uU6CAv-wIGqmtH4Zv3Vl-18" value="city_id&lt;span style=&quot;white-space: pre;&quot;&gt; &lt;/span&gt;&lt;span style=&quot;white-space: pre;&quot;&gt; &lt;/span&gt;SERIAL" style="shape=partialRectangle;connectable=0;fillColor=none;top=0;left=0;bottom=0;right=0;align=left;spacingLeft=6;overflow=hidden;whiteSpace=wrap;html=1;strokeColor=#666666;" parent="uU6CAv-wIGqmtH4Zv3Vl-16" vertex="1">
          <mxGeometry x="30" width="160" height="30" as="geometry">
            <mxRectangle width="160" height="30" as="alternateBounds" />
          </mxGeometry>
        </mxCell>
        <mxCell id="uU6CAv-wIGqmtH4Zv3Vl-13" value="" style="shape=tableRow;horizontal=0;startSize=0;swimlaneHead=0;swimlaneBody=0;fillColor=none;collapsible=0;dropTarget=0;points=[[0,0.5],[1,0.5]];portConstraint=eastwest;top=0;left=0;right=0;bottom=0;strokeColor=#666666;" parent="uU6CAv-wIGqmtH4Zv3Vl-0" vertex="1">
          <mxGeometry y="120" width="190" height="30" as="geometry" />
        </mxCell>
        <mxCell id="uU6CAv-wIGqmtH4Zv3Vl-14" value="" style="shape=partialRectangle;connectable=0;fillColor=none;top=0;left=0;bottom=0;right=0;editable=1;overflow=hidden;whiteSpace=wrap;html=1;strokeColor=#666666;" parent="uU6CAv-wIGqmtH4Zv3Vl-13" vertex="1">
          <mxGeometry width="30" height="30" as="geometry">
            <mxRectangle width="30" height="30" as="alternateBounds" />
          </mxGeometry>
        </mxCell>
        <mxCell id="uU6CAv-wIGqmtH4Zv3Vl-15" value="weather&lt;span style=&quot;white-space: pre;&quot;&gt; &lt;/span&gt;&lt;span style=&quot;white-space: pre;&quot;&gt; &lt;/span&gt;SMALLINT" style="shape=partialRectangle;connectable=0;fillColor=none;top=0;left=0;bottom=0;right=0;align=left;spacingLeft=6;overflow=hidden;whiteSpace=wrap;html=1;strokeColor=#666666;" parent="uU6CAv-wIGqmtH4Zv3Vl-13" vertex="1">
          <mxGeometry x="30" width="160" height="30" as="geometry">
            <mxRectangle width="160" height="30" as="alternateBounds" />
          </mxGeometry>
        </mxCell>
        <mxCell id="uU6CAv-wIGqmtH4Zv3Vl-19" value="" style="shape=tableRow;horizontal=0;startSize=0;swimlaneHead=0;swimlaneBody=0;fillColor=none;collapsible=0;dropTarget=0;points=[[0,0.5],[1,0.5]];portConstraint=eastwest;top=0;left=0;right=0;bottom=0;strokeColor=#666666;" parent="uU6CAv-wIGqmtH4Zv3Vl-0" vertex="1">
          <mxGeometry y="150" width="190" height="30" as="geometry" />
        </mxCell>
        <mxCell id="uU6CAv-wIGqmtH4Zv3Vl-20" value="" style="shape=partialRectangle;connectable=0;fillColor=none;top=0;left=0;bottom=0;right=0;editable=1;overflow=hidden;whiteSpace=wrap;html=1;strokeColor=#666666;" parent="uU6CAv-wIGqmtH4Zv3Vl-19" vertex="1">
          <mxGeometry width="30" height="30" as="geometry">
            <mxRectangle width="30" height="30" as="alternateBounds" />
          </mxGeometry>
        </mxCell>
        <mxCell id="uU6CAv-wIGqmtH4Zv3Vl-21" value="type_id&lt;span style=&quot;white-space: pre;&quot;&gt; &lt;/span&gt;&lt;span style=&quot;white-space: pre;&quot;&gt; &lt;/span&gt;SERIAL" style="shape=partialRectangle;connectable=0;fillColor=none;top=0;left=0;bottom=0;right=0;align=left;spacingLeft=6;overflow=hidden;whiteSpace=wrap;html=1;strokeColor=#666666;" parent="uU6CAv-wIGqmtH4Zv3Vl-19" vertex="1">
          <mxGeometry x="30" width="160" height="30" as="geometry">
            <mxRectangle width="160" height="30" as="alternateBounds" />
          </mxGeometry>
        </mxCell>
        <mxCell id="uU6CAv-wIGqmtH4Zv3Vl-22" value="cities" style="shape=table;startSize=30;container=1;collapsible=1;childLayout=tableLayout;fixedRows=1;rowLines=0;fontStyle=1;align=center;resizeLast=1;html=1;shadow=0;strokeColor=#666666;" parent="WIyWlLk6GJQsqaUBKTNV-1" vertex="1">
          <mxGeometry x="320" y="193" width="163" height="90" as="geometry" />
        </mxCell>
        <mxCell id="uU6CAv-wIGqmtH4Zv3Vl-23" value="" style="shape=tableRow;horizontal=0;startSize=0;swimlaneHead=0;swimlaneBody=0;fillColor=none;collapsible=0;dropTarget=0;points=[[0,0.5],[1,0.5]];portConstraint=eastwest;top=0;left=0;right=0;bottom=1;strokeColor=#666666;" parent="uU6CAv-wIGqmtH4Zv3Vl-22" vertex="1">
          <mxGeometry y="30" width="163" height="30" as="geometry" />
        </mxCell>
        <mxCell id="uU6CAv-wIGqmtH4Zv3Vl-24" value="PK" style="shape=partialRectangle;connectable=0;fillColor=none;top=0;left=0;bottom=0;right=0;fontStyle=1;overflow=hidden;whiteSpace=wrap;html=1;strokeColor=#666666;" parent="uU6CAv-wIGqmtH4Zv3Vl-23" vertex="1">
          <mxGeometry width="30" height="30" as="geometry">
            <mxRectangle width="30" height="30" as="alternateBounds" />
          </mxGeometry>
        </mxCell>
        <mxCell id="uU6CAv-wIGqmtH4Zv3Vl-25" value="id&lt;span style=&quot;white-space: pre;&quot;&gt; &lt;/span&gt;&lt;span style=&quot;white-space: pre;&quot;&gt; &lt;/span&gt;&lt;span style=&quot;font-weight: normal;&quot;&gt;SERIAL&lt;/span&gt;" style="shape=partialRectangle;connectable=0;fillColor=none;top=0;left=0;bottom=0;right=0;align=left;spacingLeft=6;fontStyle=5;overflow=hidden;whiteSpace=wrap;html=1;strokeColor=#666666;" parent="uU6CAv-wIGqmtH4Zv3Vl-23" vertex="1">
          <mxGeometry x="30" width="133" height="30" as="geometry">
            <mxRectangle width="133" height="30" as="alternateBounds" />
          </mxGeometry>
        </mxCell>
        <mxCell id="uU6CAv-wIGqmtH4Zv3Vl-26" value="" style="shape=tableRow;horizontal=0;startSize=0;swimlaneHead=0;swimlaneBody=0;fillColor=none;collapsible=0;dropTarget=0;points=[[0,0.5],[1,0.5]];portConstraint=eastwest;top=0;left=0;right=0;bottom=0;strokeColor=#666666;" parent="uU6CAv-wIGqmtH4Zv3Vl-22" vertex="1">
          <mxGeometry y="60" width="163" height="30" as="geometry" />
        </mxCell>
        <mxCell id="uU6CAv-wIGqmtH4Zv3Vl-27" value="" style="shape=partialRectangle;connectable=0;fillColor=none;top=0;left=0;bottom=0;right=0;editable=1;overflow=hidden;whiteSpace=wrap;html=1;strokeColor=#666666;" parent="uU6CAv-wIGqmtH4Zv3Vl-26" vertex="1">
          <mxGeometry width="30" height="30" as="geometry">
            <mxRectangle width="30" height="30" as="alternateBounds" />
          </mxGeometry>
        </mxCell>
        <mxCell id="uU6CAv-wIGqmtH4Zv3Vl-28" value="name&lt;span style=&quot;white-space: pre;&quot;&gt; &lt;/span&gt;TEXT" style="shape=partialRectangle;connectable=0;fillColor=none;top=0;left=0;bottom=0;right=0;align=left;spacingLeft=6;overflow=hidden;whiteSpace=wrap;html=1;strokeColor=#666666;" parent="uU6CAv-wIGqmtH4Zv3Vl-26" vertex="1">
          <mxGeometry x="30" width="133" height="30" as="geometry">
            <mxRectangle width="133" height="30" as="alternateBounds" />
          </mxGeometry>
        </mxCell>
        <mxCell id="uU6CAv-wIGqmtH4Zv3Vl-35" value="types" style="shape=table;startSize=30;container=1;collapsible=1;childLayout=tableLayout;fixedRows=1;rowLines=0;fontStyle=1;align=center;resizeLast=1;html=1;strokeColor=#666666;" parent="WIyWlLk6GJQsqaUBKTNV-1" vertex="1">
          <mxGeometry x="320" y="304" width="163" height="90" as="geometry" />
        </mxCell>
        <mxCell id="uU6CAv-wIGqmtH4Zv3Vl-36" value="" style="shape=tableRow;horizontal=0;startSize=0;swimlaneHead=0;swimlaneBody=0;fillColor=none;collapsible=0;dropTarget=0;points=[[0,0.5],[1,0.5]];portConstraint=eastwest;top=0;left=0;right=0;bottom=1;strokeColor=#666666;" parent="uU6CAv-wIGqmtH4Zv3Vl-35" vertex="1">
          <mxGeometry y="30" width="163" height="30" as="geometry" />
        </mxCell>
        <mxCell id="uU6CAv-wIGqmtH4Zv3Vl-37" value="PK" style="shape=partialRectangle;connectable=0;fillColor=none;top=0;left=0;bottom=0;right=0;fontStyle=1;overflow=hidden;whiteSpace=wrap;html=1;strokeColor=#666666;" parent="uU6CAv-wIGqmtH4Zv3Vl-36" vertex="1">
          <mxGeometry width="30" height="30" as="geometry">
            <mxRectangle width="30" height="30" as="alternateBounds" />
          </mxGeometry>
        </mxCell>
        <mxCell id="uU6CAv-wIGqmtH4Zv3Vl-38" value="id&lt;span style=&quot;white-space: pre;&quot;&gt; &lt;/span&gt;&lt;span style=&quot;white-space: pre;&quot;&gt; &lt;/span&gt;&lt;span style=&quot;font-weight: normal;&quot;&gt;SERIAL&lt;/span&gt;" style="shape=partialRectangle;connectable=0;fillColor=none;top=0;left=0;bottom=0;right=0;align=left;spacingLeft=6;fontStyle=5;overflow=hidden;whiteSpace=wrap;html=1;strokeColor=#666666;" parent="uU6CAv-wIGqmtH4Zv3Vl-36" vertex="1">
          <mxGeometry x="30" width="133" height="30" as="geometry">
            <mxRectangle width="133" height="30" as="alternateBounds" />
          </mxGeometry>
        </mxCell>
        <mxCell id="uU6CAv-wIGqmtH4Zv3Vl-39" value="" style="shape=tableRow;horizontal=0;startSize=0;swimlaneHead=0;swimlaneBody=0;fillColor=none;collapsible=0;dropTarget=0;points=[[0,0.5],[1,0.5]];portConstraint=eastwest;top=0;left=0;right=0;bottom=0;strokeColor=#666666;" parent="uU6CAv-wIGqmtH4Zv3Vl-35" vertex="1">
          <mxGeometry y="60" width="163" height="30" as="geometry" />
        </mxCell>
        <mxCell id="uU6CAv-wIGqmtH4Zv3Vl-40" value="" style="shape=partialRectangle;connectable=0;fillColor=none;top=0;left=0;bottom=0;right=0;editable=1;overflow=hidden;whiteSpace=wrap;html=1;strokeColor=#666666;" parent="uU6CAv-wIGqmtH4Zv3Vl-39" vertex="1">
          <mxGeometry width="30" height="30" as="geometry">
            <mxRectangle width="30" height="30" as="alternateBounds" />
          </mxGeometry>
        </mxCell>
        <mxCell id="uU6CAv-wIGqmtH4Zv3Vl-41" value="name&lt;span style=&quot;white-space: pre;&quot;&gt; &lt;/span&gt;TEXT" style="shape=partialRectangle;connectable=0;fillColor=none;top=0;left=0;bottom=0;right=0;align=left;spacingLeft=6;overflow=hidden;whiteSpace=wrap;html=1;strokeColor=#666666;" parent="uU6CAv-wIGqmtH4Zv3Vl-39" vertex="1">
          <mxGeometry x="30" width="133" height="30" as="geometry">
            <mxRectangle width="133" height="30" as="alternateBounds" />
          </mxGeometry>
        </mxCell>
        <mxCell id="uU6CAv-wIGqmtH4Zv3Vl-43" value="" style="edgeStyle=elbowEdgeStyle;fontSize=12;html=1;endArrow=ERoneToMany;startArrow=ERmandOne;rounded=0;exitX=0;exitY=0.5;exitDx=0;exitDy=0;entryX=1;entryY=0.5;entryDx=0;entryDy=0;strokeColor=#666666;" parent="WIyWlLk6GJQsqaUBKTNV-1" source="uU6CAv-wIGqmtH4Zv3Vl-23" target="uU6CAv-wIGqmtH4Zv3Vl-16" edge="1">
          <mxGeometry width="100" height="100" relative="1" as="geometry">
            <mxPoint x="500" y="120" as="sourcePoint" />
            <mxPoint x="600" y="20" as="targetPoint" />
            <Array as="points">
              <mxPoint x="260" y="310" />
            </Array>
          </mxGeometry>
        </mxCell>
        <mxCell id="uU6CAv-wIGqmtH4Zv3Vl-44" value="" style="edgeStyle=elbowEdgeStyle;fontSize=12;html=1;endArrow=ERoneToMany;startArrow=ERmandOne;rounded=0;exitX=0;exitY=0.5;exitDx=0;exitDy=0;entryX=1;entryY=0.5;entryDx=0;entryDy=0;strokeColor=#666666;" parent="WIyWlLk6GJQsqaUBKTNV-1" source="uU6CAv-wIGqmtH4Zv3Vl-36" target="uU6CAv-wIGqmtH4Zv3Vl-19" edge="1">
          <mxGeometry width="100" height="100" relative="1" as="geometry">
            <mxPoint x="334" y="245" as="sourcePoint" />
            <mxPoint x="250" y="395" as="targetPoint" />
            <Array as="points">
              <mxPoint x="278" y="358" />
            </Array>
          </mxGeometry>
        </mxCell>
      </root>
    </mxGraphModel>
  </diagram>
</mxfile>
